<svg id="Capa_1" enable-background="new 0 0 512 512" height="512" viewBox="0 0 512 512" width="512" xmlns="http://www.w3.org/2000/svg"><g><path d="m196 0c-57.891 0-105 47.109-105 105 0 8.291 6.709 15 15 15s15-6.709 15-15c0-41.353 33.647-75 75-75s75 33.647 75 75c0 8.291 6.709 15 15 15s15-6.709 15-15c0-57.891-47.109-105-105-105z" fill="#a8ebfa"/><path d="m271 105c0 8.291 6.709 15 15 15s15-6.709 15-15c0-57.891-47.109-105-105-105v30c41.353 0 75 33.647 75 75z" fill="#1fcefc"/><path d="m387.25 241c-17.311 0-30.546 13.213-32.494 30h-.756v-26.25c0-18.64-15.61-33.75-34.25-33.75s-33.75 15.11-33.75 33.75v-30c0-18.64-15.11-33.75-33.75-33.75s-33.25 15.11-33.25 33.75v-121c0-14.65-9.956-26.81-23-31.479-3.554-1.271-7.26-2.271-11.25-2.271-18.64 0-33.75 15.11-33.75 33.75v177.25h-15c-24.814 0-45 20.186-45 45v82.91c0 47.095 26.162 90.443 68.291 111.508 2.08 1.04 4.38 1.582 6.709 1.582h30 180c3.984 0 7.793-1.582 10.605-4.395 21.856-21.855 34.395-52.119 34.395-83.027v-149.828c0-18.64-15.11-33.75-33.75-33.75z" fill="#ffe1ba"/><path d="m386.605 507.605c21.856-21.855 34.395-52.119 34.395-83.027v-149.828c0-18.64-15.11-33.75-33.75-33.75-17.311 0-30.546 13.213-32.494 30h-.756v-26.25c0-18.64-15.61-33.75-34.25-33.75s-33.75 15.11-33.75 33.75v-30c0-18.64-15.11-33.75-33.75-33.75s-33.25 15.11-33.25 33.75v-121c0-14.65-9.956-26.81-23-31.479v449.729h180c3.984 0 7.793-1.582 10.605-4.395z" fill="#ffbd86"/></g></svg>